# xmcd
#
# Track frame offsets:
#	150
#	20143
#	42119
#	60391
#	81105
#	99611
#	120656
#	137995
#	158448
#	184205
#	207054
#	225229
#	242634
#	262973
#	273011
#	291380
#	308364
#	322109
#	343147
#
# Disc length: 4790 seconds
#
# Revision: 1
# Processed by: cddbd v1.5.1PL0 Copyright (c) Steve Scherf et al.
# Submitted via: audiograbber 1.83.01
#
DISCID=0312b413
DTITLE=ZZ Top - Antenna [+Bonus Single Hits]
DYEAR=1994
DGENRE=Rock
TTITLE0=Pincushion
TTITLE1=Breakaway
TTITLE2=World Of Swirl
TTITLE3=Fuzzbox Voodoo
TTITLE4=Girl In A T-Shirt
TTITLE5=Antena Head
TTITLE6=PCH
TTITLE7=Cherry Red
TTITLE8=Cover Your Rig
TTITLE9=Lizard Life
TTITLE10=Deal Goin' Down
TTITLE11=Everything
TTITLE12=Legs (Previously Unreleased Version)
TTITLE13=Tush (Remix)
TTITLE14=Pearl Necklace (Remix)
TTITLE15=La Grange (Remix)
TTITLE16=Tube Shake Boogie (Remix)
TTITLE17=Viva Las Vegas
TTITLE18=Gun Love
EXTD=
EXTT0=
EXTT1=
EXTT2=
EXTT3=
EXTT4=
EXTT5=
EXTT6=
EXTT7=
EXTT8=
EXTT9=
EXTT10=
EXTT11=
EXTT12=
EXTT13=
EXTT14=
EXTT15=
EXTT16=
EXTT17=
EXTT18=
PLAYORDER=
